<svg id="Layer_1" data-name="Layer 1" xmlns="http://www.w3.org/2000/svg" viewBox="0 0 107.54 122.88"><defs><style>.cls-1{fill-rule:evenodd;}</style></defs><title>design-thinking</title><path class="cls-1" d="M102.8,18.8,107.2,25a1.81,1.81,0,0,1-.42,2.54l-3.41,2.43-6.52-9.13,3.42-2.43a1.82,1.82,0,0,1,2.53.42ZM21.56,91.1a1.86,1.86,0,1,1,1.62,3.35,10.09,10.09,0,0,1-5.53.83,19,19,0,0,1-3.52-.75c0,.48.1,1,.16,1.43.18,1.34.43,2.72.74,4.13a1.88,1.88,0,0,1-.24,1.38,14.49,14.49,0,0,0-1.66,5.32,4.31,4.31,0,0,0,1.11,3.48,7.68,7.68,0,0,0,4.06,1.84,29.88,29.88,0,0,0,10.37-.35,65,65,0,0,0,11.85-3.26A32.26,32.26,0,0,0,48.81,104c2.18-1.74,3.18-4.6,4-7,.18-.51.35-1,.43-1.2l.25-.68c1.07-2.94,2.92-8,5.34-9.91a1.86,1.86,0,0,1,2.27,3C59.57,89.34,58,93.8,57,96.37c-.19.53-.15.43-.24.69-.21.54-.31.84-.42,1.14-1,2.91-2.21,6.31-5.22,8.72a35.77,35.77,0,0,1-9.27,5c-.8.31-1.6.6-2.41.87a29.62,29.62,0,0,1-.13,3.65,30.25,30.25,0,0,1-.91,5,1.86,1.86,0,0,1-3.6-1,26.32,26.32,0,0,0,.81-4.4c.07-.71.11-1.44.12-2.17-2.2.6-4.37,1.08-6.42,1.45a33.29,33.29,0,0,1-11.71.34,11.17,11.17,0,0,1-6-2.88,7.86,7.86,0,0,1-2.18-6.32,17.63,17.63,0,0,1,1.84-6.3c-.25-1.23-.47-2.5-.64-3.82A43.77,43.77,0,0,1,10.23,92a1,1,0,0,1,0-.17,1.08,1.08,0,0,1,0-.19c-.27-2.81-.3-5.55-.34-8.32v-.65l-4.3-.25h0a5.85,5.85,0,0,1-3-.92,5.34,5.34,0,0,1-1.9-2.15A6.25,6.25,0,0,1,0,76.43a9.43,9.43,0,0,1,1.62-4.85l4.61-9.4C8.48,57.56,8.46,57,8.36,54.54c0-1.09-.1-2.49,0-4.58a35,35,0,0,1,.9-7.1,23.89,23.89,0,0,1,1.55-4.5L2.41,34.71a1.86,1.86,0,0,1-1-2.45,1.71,1.71,0,0,1,.21-.35h0c20-27.25,42.59-34.76,61.7-31A53,53,0,0,1,92,17.41l.43.47-.15.1L89.36,20l-.11-.12A49.34,49.34,0,0,0,62.64,4.56c-17.37-3.42-38,3.33-56.59,27.68l8,3.47a2.3,2.3,0,0,1,.32.15A1.87,1.87,0,0,1,15,38.42a18.92,18.92,0,0,0-2.12,5.31,31.86,31.86,0,0,0-.8,6.35c-.06,2,0,3.27,0,4.31.12,3.16.15,4-2.52,9.42L4.94,73.25a1.91,1.91,0,0,1-.15.28,5.7,5.7,0,0,0-1.07,3A2.54,2.54,0,0,0,4,77.69a1.64,1.64,0,0,0,.59.68,2.11,2.11,0,0,0,1.07.32h.15l5.33.31a1.61,1.61,0,0,1,.54-.09h.19l4.91.42a1.86,1.86,0,1,1-.3,3.71h-.1l-2.77-.17v.39c0,2.41.07,4.81.26,7.23A17.53,17.53,0,0,0,18,91.58a6.44,6.44,0,0,0,3.53-.48ZM103.38,36a52.18,52.18,0,0,1,2.76,10.9C108.63,64.83,101.44,84,79.3,97a1.68,1.68,0,0,1-.6.22,69.81,69.81,0,0,0,.5,7.91,61.44,61.44,0,0,0,3.48,14.27,1.86,1.86,0,1,1-3.48,1.31,65,65,0,0,1-3.7-15.12,76.1,76.1,0,0,1-.08-17,1.86,1.86,0,0,1,3.7.38c-.14,1.36-.25,2.7-.31,4,19.53-12.06,25.89-29.37,23.64-45.52a47.81,47.81,0,0,0-2.22-9.18L103.38,36ZM55.83,25.4a8.16,8.16,0,0,1,5.25-3.78,8.27,8.27,0,0,1,5.41.78,9,9,0,0,1,3.87,3.71A8.14,8.14,0,0,1,71.09,28a8.52,8.52,0,0,1,2.88.47,10,10,0,0,1,2.09,1L72.5,32A4.46,4.46,0,0,0,71,31.78h0a8.81,8.81,0,0,1-1.72,3.07,1.82,1.82,0,1,1-2.78-2.34,4,4,0,0,0,.66-4.67,5.35,5.35,0,0,0-2.3-2.19,4.59,4.59,0,0,0-3-.46c-1.36.28-2.68,1.33-3.59,3.47a1.37,1.37,0,0,1,0,.29V66.52a1.53,1.53,0,0,1,.07.29c.53,3.18,1.9,4.71,3.45,5.14a5.36,5.36,0,0,0,4.39-1,4.83,4.83,0,0,0,2.21-3.69c0-1.62-1.17-3.45-4.35-5.07a1.83,1.83,0,1,1,1.67-3.26c3.51,1.79,5.35,4,6,6.21a6.18,6.18,0,0,0,3-2.42,8.36,8.36,0,0,0,1.35-5.8,1.88,1.88,0,0,1,.9-2,10,10,0,0,0,3.08-2.64,6.08,6.08,0,0,0,1-1.9l1-.12a5,5,0,0,0,2.56-.9l.48-.34v.09a9.44,9.44,0,0,1-1.93,5.42,13.17,13.17,0,0,1-3.18,3,11.93,11.93,0,0,1-2.07,7.35A9.67,9.67,0,0,1,71.8,69a9.4,9.4,0,0,1-11,6.48,7.68,7.68,0,0,1-4.77-4,8.25,8.25,0,0,1-5.45,4.11,8.6,8.6,0,0,1-6.94-1.75,8.42,8.42,0,0,1-3.11-4.79,8.62,8.62,0,0,1-2.42-.46,11.07,11.07,0,0,1-4.77-3.27,11,11,0,0,1-2.6-5.61,10.05,10.05,0,0,1,.11-3.49,12.35,12.35,0,0,1-2.19-2.62,10.1,10.1,0,0,1-1.55-5.39,9.64,9.64,0,0,1,1.95-5.66,13.39,13.39,0,0,1,3.07-3,9.19,9.19,0,0,1,0-1,11.84,11.84,0,0,1,2.63-7.08,9.36,9.36,0,0,1,5.79-3.45h0a8.14,8.14,0,0,1,.27-.93,8.8,8.8,0,0,1,3.85-4.47,8.36,8.36,0,0,1,5.9-1,8.14,8.14,0,0,1,5.24,3.78ZM40.72,65.33c.73-2.29,2.64-4.56,6.26-6.41a1.83,1.83,0,1,1,1.66,3.26C45.29,63.89,44,65.85,44,67.56A4.5,4.5,0,0,0,45.9,71a5,5,0,0,0,4,1c1.7-.36,3.35-1.93,4.2-5.37V30.52c-.85-3.41-2.5-5-4.2-5.33a4.73,4.73,0,0,0-3.33.62,5.12,5.12,0,0,0-2.25,2.58c-.52,1.41-.21,3.15,1.55,4.79a1.82,1.82,0,0,1-2.46,2.67,9.24,9.24,0,0,1-2.65-4,5.68,5.68,0,0,0-3,2,8.1,8.1,0,0,0-1.78,4.83,8.83,8.83,0,0,0,.09,1.6h0a1.88,1.88,0,0,1-.88,1.86,10.65,10.65,0,0,0-3,2.64,6,6,0,0,0-1.23,3.47,6.32,6.32,0,0,0,1,3.36A8.57,8.57,0,0,0,34.07,54a1.9,1.9,0,0,1,.72,2.17,6.63,6.63,0,0,0-.3,3.05,7.15,7.15,0,0,0,1.71,3.65,7.41,7.41,0,0,0,3.14,2.17,5,5,0,0,0,1.38.27Zm.42-25.7a1.82,1.82,0,0,1,2.55,2.6,8.23,8.23,0,0,0-2.46,5.54,9.08,9.08,0,0,0,2,6,1.82,1.82,0,0,1-2.84,2.28,12.57,12.57,0,0,1-2.81-8.43,11.81,11.81,0,0,1,3.54-8Zm40.58,5.62-6.68.9c-5.24.7-5.38,1.73-3.22-2.83l3.4-7.19h0L95.12,22l6.52,9.14L81.72,45.26Zm-5.39-7.56,4.28,6-4.39.59c-3.44.46-3.54,1.13-2.12-1.87l2.23-4.72Z"/></svg>